<mxfile host="65bd71144e">
    <diagram name="Page-1" id="qztRpckbrFEY-geydGaS">
        <mxGraphModel dx="1447" dy="514" grid="1" gridSize="10" guides="1" tooltips="1" connect="1" arrows="1" fold="1" page="1" pageScale="1" pageWidth="827" pageHeight="1169" math="0" shadow="0">
            <root>
                <mxCell id="0"/>
                <mxCell id="1" parent="0"/>
                <mxCell id="eoR4iP3E43pKiGeZ5qrH-18" value="CPU 1" style="rounded=1;whiteSpace=wrap;html=1;" parent="1" vertex="1">
                    <mxGeometry x="394" y="196" width="60" height="40" as="geometry"/>
                </mxCell>
                <mxCell id="eoR4iP3E43pKiGeZ5qrH-39" style="edgeStyle=orthogonalEdgeStyle;rounded=0;orthogonalLoop=1;jettySize=auto;html=1;entryX=0;entryY=0.5;entryDx=0;entryDy=0;curved=1;dashed=1;exitX=0;exitY=0;exitDx=80;exitDy=65;exitPerimeter=0;fillColor=#dae8fc;strokeColor=#6c8ebf;endArrow=none;endFill=0;" parent="1" target="eoR4iP3E43pKiGeZ5qrH-21" edge="1">
                    <mxGeometry relative="1" as="geometry">
                        <mxPoint x="341" y="205" as="sourcePoint"/>
                    </mxGeometry>
                </mxCell>
                <mxCell id="eoR4iP3E43pKiGeZ5qrH-40" style="edgeStyle=orthogonalEdgeStyle;rounded=0;orthogonalLoop=1;jettySize=auto;html=1;entryX=0;entryY=0.5;entryDx=0;entryDy=0;curved=1;dashed=1;exitX=0;exitY=0;exitDx=80;exitDy=65;exitPerimeter=0;fillColor=#dae8fc;strokeColor=#6c8ebf;endArrow=none;endFill=0;" parent="1" target="eoR4iP3E43pKiGeZ5qrH-22" edge="1">
                    <mxGeometry relative="1" as="geometry">
                        <mxPoint x="341" y="205" as="sourcePoint"/>
                    </mxGeometry>
                </mxCell>
                <mxCell id="eoR4iP3E43pKiGeZ5qrH-1" value="Synthetic &lt;br&gt;datasets" style="shape=note;whiteSpace=wrap;html=1;backgroundOutline=1;darkOpacity=0.05;" parent="1" vertex="1">
                    <mxGeometry x="260" y="140" width="80" height="100" as="geometry"/>
                </mxCell>
                <mxCell id="eoR4iP3E43pKiGeZ5qrH-55" style="edgeStyle=orthogonalEdgeStyle;rounded=0;orthogonalLoop=1;jettySize=auto;html=1;entryX=0;entryY=0.5;entryDx=0;entryDy=0;fillColor=#dae8fc;strokeColor=#6c8ebf;curved=1;endArrow=none;endFill=0;" parent="1" target="eoR4iP3E43pKiGeZ5qrH-21" edge="1">
                    <mxGeometry relative="1" as="geometry">
                        <mxPoint x="341" y="300" as="sourcePoint"/>
                    </mxGeometry>
                </mxCell>
                <mxCell id="eoR4iP3E43pKiGeZ5qrH-56" style="edgeStyle=orthogonalEdgeStyle;rounded=0;orthogonalLoop=1;jettySize=auto;html=1;entryX=0;entryY=0.5;entryDx=0;entryDy=0;fillColor=#dae8fc;strokeColor=#6c8ebf;curved=1;endArrow=none;endFill=0;" parent="1" target="eoR4iP3E43pKiGeZ5qrH-22" edge="1">
                    <mxGeometry relative="1" as="geometry">
                        <mxPoint x="341" y="300" as="sourcePoint"/>
                    </mxGeometry>
                </mxCell>
                <mxCell id="eoR4iP3E43pKiGeZ5qrH-59" style="edgeStyle=orthogonalEdgeStyle;rounded=0;orthogonalLoop=1;jettySize=auto;html=1;entryX=0;entryY=0.5;entryDx=0;entryDy=0;curved=1;fillColor=#dae8fc;strokeColor=#6c8ebf;exitX=1;exitY=0.498;exitDx=0;exitDy=0;exitPerimeter=0;" parent="1" target="eoR4iP3E43pKiGeZ5qrH-20" edge="1">
                    <mxGeometry relative="1" as="geometry">
                        <mxPoint x="341" y="299.80000000000007" as="sourcePoint"/>
                        <Array as="points">
                            <mxPoint x="351" y="300"/>
                            <mxPoint x="351" y="216"/>
                        </Array>
                    </mxGeometry>
                </mxCell>
                <mxCell id="eoR4iP3E43pKiGeZ5qrH-2" value="Real&lt;br&gt;datasets&amp;nbsp;" style="shape=note;whiteSpace=wrap;html=1;backgroundOutline=1;darkOpacity=0.05;" parent="1" vertex="1">
                    <mxGeometry x="260" y="250" width="80" height="100" as="geometry"/>
                </mxCell>
                <mxCell id="eoR4iP3E43pKiGeZ5qrH-65" value="" style="edgeStyle=orthogonalEdgeStyle;rounded=0;orthogonalLoop=1;jettySize=auto;html=1;" parent="1" source="eoR4iP3E43pKiGeZ5qrH-3" target="eoR4iP3E43pKiGeZ5qrH-64" edge="1">
                    <mxGeometry relative="1" as="geometry"/>
                </mxCell>
                <mxCell id="eoR4iP3E43pKiGeZ5qrH-3" value="Training samples" style="shape=cylinder3;whiteSpace=wrap;html=1;boundedLbl=1;backgroundOutline=1;size=15;" parent="1" vertex="1">
                    <mxGeometry x="532" y="150" width="60" height="80" as="geometry"/>
                </mxCell>
                <mxCell id="eoR4iP3E43pKiGeZ5qrH-70" style="edgeStyle=orthogonalEdgeStyle;rounded=0;orthogonalLoop=1;jettySize=auto;html=1;entryX=0;entryY=0.5;entryDx=0;entryDy=0;" parent="1" source="eoR4iP3E43pKiGeZ5qrH-6" target="eoR4iP3E43pKiGeZ5qrH-68" edge="1">
                    <mxGeometry relative="1" as="geometry"/>
                </mxCell>
                <mxCell id="eoR4iP3E43pKiGeZ5qrH-6" value="Test samples" style="shape=cylinder3;whiteSpace=wrap;html=1;boundedLbl=1;backgroundOutline=1;size=15;" parent="1" vertex="1">
                    <mxGeometry x="532" y="260" width="60" height="80" as="geometry"/>
                </mxCell>
                <mxCell id="eoR4iP3E43pKiGeZ5qrH-15" value="CPU 1" style="rounded=1;whiteSpace=wrap;html=1;" parent="1" vertex="1">
                    <mxGeometry x="394" y="150" width="60" height="40" as="geometry"/>
                </mxCell>
                <mxCell id="eoR4iP3E43pKiGeZ5qrH-16" value="CPU 1" style="rounded=1;whiteSpace=wrap;html=1;" parent="1" vertex="1">
                    <mxGeometry x="404" y="150" width="60" height="40" as="geometry"/>
                </mxCell>
                <mxCell id="eoR4iP3E43pKiGeZ5qrH-25" style="edgeStyle=orthogonalEdgeStyle;rounded=0;orthogonalLoop=1;jettySize=auto;html=1;exitX=1;exitY=0.5;exitDx=0;exitDy=0;entryX=0;entryY=0.5;entryDx=0;entryDy=0;entryPerimeter=0;dashed=1;curved=1;fillColor=#ffe6cc;strokeColor=#d79b00;" parent="1" source="eoR4iP3E43pKiGeZ5qrH-17" target="eoR4iP3E43pKiGeZ5qrH-3" edge="1">
                    <mxGeometry relative="1" as="geometry">
                        <Array as="points">
                            <mxPoint x="494" y="170"/>
                            <mxPoint x="494" y="190"/>
                        </Array>
                    </mxGeometry>
                </mxCell>
                <mxCell id="eoR4iP3E43pKiGeZ5qrH-62" style="edgeStyle=orthogonalEdgeStyle;orthogonalLoop=1;jettySize=auto;html=1;entryX=0;entryY=0.5;entryDx=0;entryDy=0;entryPerimeter=0;fillColor=#dae8fc;strokeColor=#6c8ebf;curved=1;" parent="1" source="eoR4iP3E43pKiGeZ5qrH-17" target="eoR4iP3E43pKiGeZ5qrH-6" edge="1">
                    <mxGeometry relative="1" as="geometry"/>
                </mxCell>
                <mxCell id="eoR4iP3E43pKiGeZ5qrH-17" value="CPU 3" style="rounded=1;whiteSpace=wrap;html=1;" parent="1" vertex="1">
                    <mxGeometry x="414" y="150" width="60" height="40" as="geometry"/>
                </mxCell>
                <mxCell id="eoR4iP3E43pKiGeZ5qrH-19" value="CPU 1" style="rounded=1;whiteSpace=wrap;html=1;" parent="1" vertex="1">
                    <mxGeometry x="404" y="196" width="60" height="40" as="geometry"/>
                </mxCell>
                <mxCell id="eoR4iP3E43pKiGeZ5qrH-60" style="edgeStyle=orthogonalEdgeStyle;rounded=0;orthogonalLoop=1;jettySize=auto;html=1;entryX=0;entryY=0.5;entryDx=0;entryDy=0;entryPerimeter=0;curved=1;fillColor=#dae8fc;strokeColor=#6c8ebf;" parent="1" source="eoR4iP3E43pKiGeZ5qrH-20" target="eoR4iP3E43pKiGeZ5qrH-6" edge="1">
                    <mxGeometry relative="1" as="geometry">
                        <Array as="points">
                            <mxPoint x="494" y="216"/>
                            <mxPoint x="494" y="300"/>
                        </Array>
                    </mxGeometry>
                </mxCell>
                <mxCell id="eoR4iP3E43pKiGeZ5qrH-20" value="GPU 3" style="rounded=1;whiteSpace=wrap;html=1;" parent="1" vertex="1">
                    <mxGeometry x="414" y="196" width="60" height="40" as="geometry"/>
                </mxCell>
                <mxCell id="eoR4iP3E43pKiGeZ5qrH-43" style="edgeStyle=orthogonalEdgeStyle;rounded=0;orthogonalLoop=1;jettySize=auto;html=1;entryX=0;entryY=0.5;entryDx=0;entryDy=0;entryPerimeter=0;curved=1;dashed=1;fillColor=#dae8fc;strokeColor=#6c8ebf;" parent="1" source="eoR4iP3E43pKiGeZ5qrH-21" target="eoR4iP3E43pKiGeZ5qrH-6" edge="1">
                    <mxGeometry relative="1" as="geometry"/>
                </mxCell>
                <mxCell id="eoR4iP3E43pKiGeZ5qrH-57" style="edgeStyle=orthogonalEdgeStyle;rounded=0;orthogonalLoop=1;jettySize=auto;html=1;entryX=0;entryY=0.5;entryDx=0;entryDy=0;entryPerimeter=0;fillColor=#dae8fc;strokeColor=#6c8ebf;curved=1;exitX=1;exitY=0.5;exitDx=0;exitDy=0;" parent="1" source="eoR4iP3E43pKiGeZ5qrH-21" target="eoR4iP3E43pKiGeZ5qrH-6" edge="1">
                    <mxGeometry relative="1" as="geometry">
                        <Array as="points">
                            <mxPoint x="464" y="280"/>
                            <mxPoint x="484" y="280"/>
                            <mxPoint x="484" y="300"/>
                        </Array>
                    </mxGeometry>
                </mxCell>
                <mxCell id="eoR4iP3E43pKiGeZ5qrH-21" value="CPU 4" style="rounded=1;whiteSpace=wrap;html=1;" parent="1" vertex="1">
                    <mxGeometry x="404" y="259" width="60" height="40" as="geometry"/>
                </mxCell>
                <mxCell id="eoR4iP3E43pKiGeZ5qrH-44" style="edgeStyle=orthogonalEdgeStyle;rounded=0;orthogonalLoop=1;jettySize=auto;html=1;entryX=0;entryY=0.5;entryDx=0;entryDy=0;entryPerimeter=0;curved=1;dashed=1;fillColor=#dae8fc;strokeColor=#6c8ebf;exitX=1;exitY=0.5;exitDx=0;exitDy=0;" parent="1" source="eoR4iP3E43pKiGeZ5qrH-22" target="eoR4iP3E43pKiGeZ5qrH-6" edge="1">
                    <mxGeometry relative="1" as="geometry"/>
                </mxCell>
                <mxCell id="eoR4iP3E43pKiGeZ5qrH-58" style="edgeStyle=orthogonalEdgeStyle;rounded=0;orthogonalLoop=1;jettySize=auto;html=1;entryX=0;entryY=0.5;entryDx=0;entryDy=0;entryPerimeter=0;fillColor=#dae8fc;strokeColor=#6c8ebf;curved=1;" parent="1" source="eoR4iP3E43pKiGeZ5qrH-22" target="eoR4iP3E43pKiGeZ5qrH-6" edge="1">
                    <mxGeometry relative="1" as="geometry">
                        <Array as="points">
                            <mxPoint x="494" y="326"/>
                            <mxPoint x="494" y="300"/>
                        </Array>
                    </mxGeometry>
                </mxCell>
                <mxCell id="eoR4iP3E43pKiGeZ5qrH-22" value="GPU 4" style="rounded=1;whiteSpace=wrap;html=1;" parent="1" vertex="1">
                    <mxGeometry x="404" y="306" width="60" height="40" as="geometry"/>
                </mxCell>
                <mxCell id="eoR4iP3E43pKiGeZ5qrH-24" style="edgeStyle=orthogonalEdgeStyle;rounded=0;orthogonalLoop=1;jettySize=auto;html=1;entryX=0;entryY=0.5;entryDx=0;entryDy=0;endArrow=none;endFill=0;dashed=1;curved=1;fillColor=#ffe6cc;strokeColor=#d79b00;" parent="1" target="eoR4iP3E43pKiGeZ5qrH-17" edge="1">
                    <mxGeometry relative="1" as="geometry">
                        <mxPoint x="341" y="190" as="sourcePoint"/>
                        <Array as="points">
                            <mxPoint x="360" y="190"/>
                            <mxPoint x="360" y="170"/>
                        </Array>
                    </mxGeometry>
                </mxCell>
                <mxCell id="eoR4iP3E43pKiGeZ5qrH-38" style="edgeStyle=orthogonalEdgeStyle;rounded=0;orthogonalLoop=1;jettySize=auto;html=1;entryX=0;entryY=0.5;entryDx=0;entryDy=0;entryPerimeter=0;dashed=1;curved=1;exitX=1;exitY=0.5;exitDx=0;exitDy=0;fillColor=#ffe6cc;strokeColor=#d79b00;" parent="1" source="eoR4iP3E43pKiGeZ5qrH-20" target="eoR4iP3E43pKiGeZ5qrH-3" edge="1">
                    <mxGeometry relative="1" as="geometry">
                        <mxPoint x="473.5" y="220" as="sourcePoint"/>
                        <mxPoint x="513.5" y="250" as="targetPoint"/>
                        <Array as="points">
                            <mxPoint x="494" y="216"/>
                            <mxPoint x="494" y="190"/>
                        </Array>
                    </mxGeometry>
                </mxCell>
                <mxCell id="eoR4iP3E43pKiGeZ5qrH-45" value="" style="endArrow=classic;html=1;rounded=0;dashed=1;" parent="1" edge="1">
                    <mxGeometry width="50" height="50" relative="1" as="geometry">
                        <mxPoint x="173" y="206" as="sourcePoint"/>
                        <mxPoint x="233" y="206" as="targetPoint"/>
                    </mxGeometry>
                </mxCell>
                <mxCell id="eoR4iP3E43pKiGeZ5qrH-46" value="Synthetic data" style="edgeLabel;html=1;align=center;verticalAlign=middle;resizable=0;points=[];" parent="eoR4iP3E43pKiGeZ5qrH-45" connectable="0" vertex="1">
                    <mxGeometry x="-0.5954" y="1" relative="1" as="geometry">
                        <mxPoint x="18" y="-9" as="offset"/>
                    </mxGeometry>
                </mxCell>
                <mxCell id="eoR4iP3E43pKiGeZ5qrH-47" value="" style="endArrow=classic;html=1;rounded=0;" parent="1" edge="1">
                    <mxGeometry width="50" height="50" relative="1" as="geometry">
                        <mxPoint x="173" y="236.32999999999998" as="sourcePoint"/>
                        <mxPoint x="233" y="236.32999999999998" as="targetPoint"/>
                    </mxGeometry>
                </mxCell>
                <mxCell id="eoR4iP3E43pKiGeZ5qrH-48" value="Real data" style="edgeLabel;html=1;align=center;verticalAlign=middle;resizable=0;points=[];" parent="eoR4iP3E43pKiGeZ5qrH-47" connectable="0" vertex="1">
                    <mxGeometry x="-0.5954" y="1" relative="1" as="geometry">
                        <mxPoint x="18" y="-9" as="offset"/>
                    </mxGeometry>
                </mxCell>
                <mxCell id="eoR4iP3E43pKiGeZ5qrH-34" style="edgeStyle=orthogonalEdgeStyle;rounded=0;orthogonalLoop=1;jettySize=auto;html=1;exitX=0;exitY=0;exitDx=80;exitDy=65;exitPerimeter=0;entryX=0;entryY=0.5;entryDx=0;entryDy=0;dashed=1;curved=1;endArrow=none;endFill=0;fillColor=#ffe6cc;strokeColor=#d79b00;" parent="1" target="eoR4iP3E43pKiGeZ5qrH-20" edge="1">
                    <mxGeometry relative="1" as="geometry">
                        <mxPoint x="341" y="205" as="sourcePoint"/>
                        <Array as="points">
                            <mxPoint x="361" y="205"/>
                            <mxPoint x="361" y="216"/>
                        </Array>
                    </mxGeometry>
                </mxCell>
                <mxCell id="eoR4iP3E43pKiGeZ5qrH-51" value="" style="endArrow=classic;html=1;rounded=0;fillColor=#ffe6cc;strokeColor=#d79b00;" parent="1" edge="1">
                    <mxGeometry width="50" height="50" relative="1" as="geometry">
                        <mxPoint x="173" y="295.99999999999994" as="sourcePoint"/>
                        <mxPoint x="233" y="295.99999999999994" as="targetPoint"/>
                    </mxGeometry>
                </mxCell>
                <mxCell id="eoR4iP3E43pKiGeZ5qrH-52" value="Training sample flow" style="edgeLabel;html=1;align=center;verticalAlign=middle;resizable=0;points=[];" parent="eoR4iP3E43pKiGeZ5qrH-51" connectable="0" vertex="1">
                    <mxGeometry x="-0.5954" y="1" relative="1" as="geometry">
                        <mxPoint x="18" y="-9" as="offset"/>
                    </mxGeometry>
                </mxCell>
                <mxCell id="eoR4iP3E43pKiGeZ5qrH-53" value="" style="endArrow=classic;html=1;rounded=0;fillColor=#dae8fc;strokeColor=#6c8ebf;" parent="1" edge="1">
                    <mxGeometry width="50" height="50" relative="1" as="geometry">
                        <mxPoint x="173" y="266.33" as="sourcePoint"/>
                        <mxPoint x="233" y="266.33" as="targetPoint"/>
                    </mxGeometry>
                </mxCell>
                <mxCell id="eoR4iP3E43pKiGeZ5qrH-54" value="Test sample flow" style="edgeLabel;html=1;align=center;verticalAlign=middle;resizable=0;points=[];" parent="eoR4iP3E43pKiGeZ5qrH-53" connectable="0" vertex="1">
                    <mxGeometry x="-0.5954" y="1" relative="1" as="geometry">
                        <mxPoint x="18" y="-9" as="offset"/>
                    </mxGeometry>
                </mxCell>
                <mxCell id="eoR4iP3E43pKiGeZ5qrH-61" style="edgeStyle=orthogonalEdgeStyle;rounded=0;orthogonalLoop=1;jettySize=auto;html=1;entryX=0;entryY=0.5;entryDx=0;entryDy=0;curved=1;fillColor=#dae8fc;strokeColor=#6c8ebf;exitX=0.997;exitY=0.497;exitDx=0;exitDy=0;exitPerimeter=0;endArrow=none;endFill=0;" parent="1" target="eoR4iP3E43pKiGeZ5qrH-17" edge="1">
                    <mxGeometry relative="1" as="geometry">
                        <mxPoint x="340.76" y="299.69999999999993" as="sourcePoint"/>
                        <mxPoint x="411" y="226" as="targetPoint"/>
                        <Array as="points">
                            <mxPoint x="351" y="300"/>
                            <mxPoint x="351" y="170"/>
                        </Array>
                    </mxGeometry>
                </mxCell>
                <mxCell id="eoR4iP3E43pKiGeZ5qrH-66" style="edgeStyle=orthogonalEdgeStyle;rounded=0;orthogonalLoop=1;jettySize=auto;html=1;entryX=0.5;entryY=0;entryDx=0;entryDy=0;" parent="1" source="eoR4iP3E43pKiGeZ5qrH-64" target="eoR4iP3E43pKiGeZ5qrH-68" edge="1">
                    <mxGeometry relative="1" as="geometry">
                        <mxPoint x="655" y="300" as="targetPoint"/>
                    </mxGeometry>
                </mxCell>
                <mxCell id="eoR4iP3E43pKiGeZ5qrH-67" value="Trained models" style="edgeLabel;html=1;align=center;verticalAlign=middle;resizable=0;points=[];" parent="eoR4iP3E43pKiGeZ5qrH-66" connectable="0" vertex="1">
                    <mxGeometry x="-0.2135" y="-2" relative="1" as="geometry">
                        <mxPoint as="offset"/>
                    </mxGeometry>
                </mxCell>
                <mxCell id="eoR4iP3E43pKiGeZ5qrH-64" value="Fit cost estimators" style="rounded=1;whiteSpace=wrap;html=1;" parent="1" vertex="1">
                    <mxGeometry x="615" y="170" width="80" height="40" as="geometry"/>
                </mxCell>
                <mxCell id="eoR4iP3E43pKiGeZ5qrH-68" value="Evaluate &amp;amp; compare" style="rounded=1;whiteSpace=wrap;html=1;" parent="1" vertex="1">
                    <mxGeometry x="615" y="280" width="80" height="40" as="geometry"/>
                </mxCell>
            </root>
        </mxGraphModel>
    </diagram>
</mxfile>